<?xml version="1.0" encoding="UTF-8"?>
<svg xmlns="http://www.w3.org/2000/svg" xmlns:xlink="http://www.w3.org/1999/xlink" width="60px" height="59px" viewBox="0 0 60 59" version="1.1">
<g id="surface1">
<path style=" stroke:none;fill-rule:nonzero;fill:rgb(0%,0%,0%);fill-opacity:1;" d="M 25.371094 42.644531 C 17.636719 41.703125 12.1875 36.113281 12.1875 28.878906 C 12.1875 25.9375 13.242188 22.761719 15 20.644531 C 14.238281 18.703125 14.355469 14.585938 15.234375 12.882812 C 17.578125 12.585938 20.742188 13.820312 22.617188 15.527344 C 24.84375 14.820312 27.1875 14.46875 30.058594 14.46875 C 32.929688 14.46875 35.273438 14.820312 37.382812 15.46875 C 39.199219 13.820312 42.421875 12.585938 44.765625 12.882812 C 45.585938 14.46875 45.703125 18.585938 44.941406 20.585938 C 46.816406 22.820312 47.8125 25.820312 47.8125 28.878906 C 47.8125 36.113281 42.363281 41.585938 34.511719 42.582031 C 36.503906 43.878906 37.851562 46.699219 37.851562 49.9375 L 37.851562 56.054688 C 37.851562 57.816406 39.316406 58.816406 41.074219 58.113281 C 51.679688 54.054688 60 43.40625 60 30.230469 C 60 13.585938 46.523438 0 29.941406 0 C 13.359375 0 0 13.585938 0 30.230469 C 0 43.289062 8.261719 54.113281 19.394531 58.171875 C 20.976562 58.757812 22.5 57.699219 22.5 56.113281 L 22.5 51.40625 C 21.679688 51.757812 20.625 51.996094 19.6875 51.996094 C 15.820312 51.996094 13.535156 49.878906 11.894531 45.9375 C 11.25 44.347656 10.546875 43.40625 9.199219 43.230469 C 8.496094 43.171875 8.261719 42.878906 8.261719 42.523438 C 8.261719 41.820312 9.433594 41.289062 10.605469 41.289062 C 12.304688 41.289062 13.769531 42.347656 15.292969 44.523438 C 16.464844 46.230469 17.695312 46.996094 19.160156 46.996094 C 20.625 46.996094 21.5625 46.464844 22.910156 45.113281 C 23.90625 44.113281 24.667969 43.230469 25.371094 42.644531 Z M 25.371094 42.644531 "/>
</g>
</svg>
